<svg viewBox="0 0 512 512" xmlns="http://www.w3.org/2000/svg" role="img" aria-label="사주아이 마네키네코 아이콘">
  <!-- 앱 아이콘: 크림색 둥근 사각형 위의 마네키네코 (index.html의 SVG와 같은 그림, 색만 고정값) -->
  <rect width="512" height="512" rx="104" fill="#FBF6EC" />
  <g transform="translate(47,56) scale(1.9)">
    <path d="M168 172 q26 2 24 -20 q-1 -12 -14 -11" fill="none" stroke="#3B3430" stroke-width="7" stroke-linecap="round" />
    <g>
      <path d="M150 108 q22 -12 22 -52" fill="none" stroke="#3B3430" stroke-width="3.2" stroke-linecap="round" />
      <path d="M150 108 q22 -12 22 -52 l16 0 q4 44 -30 64 z" fill="#FFFDF8" stroke="none" />
      <path d="M188 56 q4 44 -30 64" fill="none" stroke="#3B3430" stroke-width="3.2" stroke-linecap="round" />
      <circle cx="181" cy="53" r="14.5" fill="#FFFDF8" stroke="#3B3430" stroke-width="3.2" />
      <path d="M173 46 l0 8 M180 44 l0 9 M187 46 l0 8" stroke="#3B3430" stroke-width="2" stroke-linecap="round" />
    </g>
    <ellipse cx="105" cy="150" rx="58" ry="50" fill="#FFFDF8" stroke="#3B3430" stroke-width="3.2" />
    <ellipse cx="105" cy="158" rx="34" ry="30" fill="#FBF6EC" stroke="none" />
    <path d="M62 58 L68 22 L94 44 Z" fill="#FFFDF8" stroke="#3B3430" stroke-width="3.2" stroke-linejoin="round" />
    <path d="M148 58 L142 22 L116 44 Z" fill="#FFFDF8" stroke="#3B3430" stroke-width="3.2" stroke-linejoin="round" />
    <path d="M70 50 L73 33 L86 44 Z" fill="#C93A2E" stroke="none" />
    <path d="M140 50 L137 33 L124 44 Z" fill="#C93A2E" stroke="none" />
    <circle cx="105" cy="82" r="46" fill="#FFFDF8" stroke="#3B3430" stroke-width="3.2" />
    <path d="M80 78 q8 8 16 0" fill="none" stroke="#3B3430" stroke-width="3.2" stroke-linecap="round" />
    <path d="M114 78 q8 8 16 0" fill="none" stroke="#3B3430" stroke-width="3.2" stroke-linecap="round" />
    <circle cx="76" cy="92" r="6" fill="#F3BFAE" opacity="0.75" />
    <circle cx="134" cy="92" r="6" fill="#F3BFAE" opacity="0.75" />
    <path d="M102 90 q3 -3 6 0 q-1.5 4 -3 4 q-1.5 0 -3 -4" fill="#C93A2E" />
    <path d="M105 94 q0 6 -6 7 M105 94 q0 6 6 7" fill="none" stroke="#3B3430" stroke-width="2.4" stroke-linecap="round" />
    <g stroke="#3B3430" stroke-width="1.8" stroke-linecap="round" opacity="0.85">
      <path d="M62 84 L44 80" /><path d="M63 92 L45 92" /><path d="M62 100 L46 104" />
      <path d="M148 84 L166 80" /><path d="M147 92 L165 92" /><path d="M148 100 L164 104" />
    </g>
    <path d="M74 116 q31 16 62 0" fill="none" stroke="#C93A2E" stroke-width="9" stroke-linecap="round" />
    <circle cx="105" cy="127" r="8" fill="#C99B3F" stroke="#8F6B24" stroke-width="2" />
    <path d="M105 127 l0 5 M101 131.5 q4 2.5 8 0" fill="none" stroke="#8F6B24" stroke-width="1.6" stroke-linecap="round" />
    <g transform="rotate(-12 62 162)">
      <ellipse cx="62" cy="162" rx="30" ry="21" fill="#C99B3F" stroke="#8F6B24" stroke-width="2.6" />
      <ellipse cx="62" cy="162" rx="22" ry="14" fill="none" stroke="#8F6B24" stroke-width="1.4" opacity="0.7" />
      <text x="62" y="169" text-anchor="middle" font-family="serif" font-size="19" font-weight="700" fill="#A82E24">福</text>
    </g>
    <ellipse cx="76" cy="146" rx="12" ry="9" fill="#FFFDF8" stroke="#3B3430" stroke-width="3" />
    <path d="M71 141 l0 6 M77 140 l0 7" stroke="#3B3430" stroke-width="1.8" stroke-linecap="round" />
  </g>
</svg>
